<svg xmlns="http://www.w3.org/2000/svg" xmlns:xlink="http://www.w3.org/1999/xlink" width="1080" zoomAndPan="magnify" viewBox="0 0 810 809.999993" height="1080" preserveAspectRatio="xMidYMid meet" version="1.0"><path fill="#d38639" d="M 306.582031 66.984375 C 212.605469 94 133.695312 159.34375 90.097656 246.261719 C 42.566406 341.023438 42.375 449.324219 89.5625 543.40625 C 146.097656 656.121094 256.957031 727.898438 386.109375 735.40625 C 448.097656 739.019531 509.5625 727.085938 563.851562 700.917969 C 621.472656 673.148438 669.449219 629.796875 702.59375 575.550781 C 707.808594 567.027344 712.699219 558.199219 717.160156 549.328125 C 791.714844 400.6875 751.023438 225.824219 618.199219 124.066406 C 529.722656 56.292969 416.148438 35.496094 306.582031 66.984375 " fill-opacity="1" fill-rule="nonzero"/><path fill="#abd830" d="M 313.179688 87.699219 C 408.855469 60.191406 517.121094 73.65625 604.972656 140.949219 C 739.414062 243.941406 769.820312 423.230469 683.726562 564.144531 C 555.023438 774.777344 224.132812 763.402344 109.183594 534.234375 C 18.566406 353.546875 123.796875 142.136719 313.179688 87.699219 " fill-opacity="1" fill-rule="nonzero"/><path fill="#ffffb3" d="M 337.046875 472.261719 C 334.476562 469.953125 295.425781 494.660156 293.066406 492.210938 C 290.6875 489.746094 314.292969 466.054688 312.117188 463.472656 C 309.929688 460.84375 291.679688 472.585938 287.066406 468.125 C 282.460938 463.652344 297.816406 453.75 296.058594 450.878906 C 294.289062 447.984375 269.261719 448.355469 267.71875 445.378906 C 266.175781 442.378906 292.242188 435.644531 290.929688 432.570312 C 289.625 429.484375 268.472656 434.988281 265.914062 429.902344 C 263.355469 424.820312 298.125 415.960938 297.300781 412.753906 C 296.476562 409.527344 265.265625 411.953125 264.691406 408.699219 C 264.105469 405.449219 297.933594 401.082031 297.613281 397.804688 C 297.289062 394.53125 259.992188 390.847656 259.277344 387.605469 C 257.746094 380.800781 292.363281 387.03125 262.660156 375.921875 C 246.253906 369.785156 293.054688 375.226562 293.488281 372 C 293.929688 368.769531 259.445312 359.046875 260.125 355.867188 C 260.820312 352.695312 291.335938 359.226562 292.265625 356.105469 C 293.1875 353.007812 264.847656 337.007812 265.507812 334.160156 C 266.164062 331.324219 303.148438 353.152344 304.558594 350.234375 C 305.96875 347.316406 268.792969 319.175781 272.789062 315.121094 C 276.78125 311.054688 310.574219 331.085938 312.453125 328.40625 C 314.292969 325.765625 286.789062 302.816406 289.613281 299.742188 C 292.433594 296.667969 322.566406 319.617188 324.851562 317.238281 C 327.125 314.871094 304.238281 289.171875 306.664062 287.019531 C 309.128906 284.828125 334.347656 309.046875 336.941406 307.074219 C 339.570312 305.078125 336.414062 298.425781 339.175781 296.65625 C 341.964844 294.863281 336.066406 281.695312 338.972656 280.140625 C 341.902344 278.5625 354.242188 296.132812 357.269531 294.792969 C 360.316406 293.441406 337.074219 257.023438 352.738281 274.6875 C 374.703125 299.457031 352.90625 255.253906 359.160156 253.6875 C 362.410156 252.863281 376.867188 287.722656 380.167969 287.078125 C 383.480469 286.433594 377.609375 254.574219 380.886719 253.855469 C 387.078125 252.515625 394.3125 274.628906 397.710938 274.472656 C 401.09375 274.304688 400.617188 255.566406 404.023438 255.648438 C 407.429688 255.734375 413.0625 267.992188 414.066406 264.929688 C 421.363281 242.804688 420.347656 266.867188 423.730469 267.441406 C 427.101562 268.003906 433.808594 250.960938 437.144531 251.773438 C 440.484375 252.578125 438.929688 281.375 440.816406 278.753906 C 457.894531 255.039062 442.382812 290.820312 445.589844 292.101562 C 448.78125 293.367188 466.742188 259.835938 469.851562 261.332031 C 472.9375 262.824219 465.03125 285.308594 468.03125 287.03125 C 471 288.726562 467.78125 298.007812 470.652344 299.945312 C 473.484375 301.847656 490.753906 283.945312 493.480469 286.074219 C 496.15625 288.167969 481.257812 308.617188 483.828125 310.925781 C 486.398438 313.230469 514.941406 290.917969 517.296875 293.355469 C 519.691406 295.832031 495.523438 320.011719 497.699219 322.609375 C 499.886719 325.226562 516.402344 313.855469 519.773438 314.175781 C 531.195312 315.289062 502.078125 328.957031 525.226562 327.535156 C 540.867188 326.578125 518.136719 338.167969 519.667969 341.144531 C 521.222656 344.144531 544.492188 338.597656 545.792969 341.671875 C 547.109375 344.769531 514.261719 358.519531 515.335938 361.667969 C 516.402344 364.835938 544.238281 360.828125 545.0625 364.035156 C 545.902344 367.261719 513.972656 372.238281 542.289062 379.414062 C 565.59375 385.296875 526.683594 382.128906 527.007812 385.40625 C 527.332031 388.679688 557.417969 391.515625 557.488281 394.804688 C 557.558594 398.082031 522.992188 399.050781 522.8125 402.316406 C 522.632812 405.578125 562.726562 413.246094 562.476562 417.382812 C 562.234375 421.53125 523.742188 416.175781 523.0625 419.355469 C 522.378906 422.523438 519.964844 423.804688 519.03125 426.925781 C 518.101562 430.023438 551.570312 442.390625 549.441406 447.9375 C 547.3125 453.511719 512.96875 438.707031 511.546875 441.636719 C 510.148438 444.542969 531.109375 464.730469 529.460938 467.539062 C 526.863281 472.945312 492.796875 450.820312 488.742188 455.363281 C 486.6875 457.851562 519.667969 488.109375 517.382812 490.476562 C 515.097656 492.84375 493.875 476.6875 491.445312 478.839844 C 488.984375 481.027344 500.617188 499.589844 498.011719 501.5625 C 495.378906 503.558594 472.097656 477.308594 469.335938 479.078125 C 466.550781 480.875 486.484375 515.746094 483.578125 517.3125 C 480.660156 518.890625 462.425781 491.347656 459.398438 492.6875 C 456.351562 494.039062 469.132812 520.0625 466 521.175781 C 462.84375 522.300781 447.945312 495.679688 444.714844 496.5625 C 441.476562 497.449219 452.488281 536.0625 449.1875 536.710938 C 445.875 537.355469 431.273438 508.234375 427.914062 508.640625 C 424.554688 509.046875 425.988281 547.496094 422.59375 547.652344 C 419.210938 547.820312 413.050781 511.082031 409.644531 510.996094 C 406.234375 510.914062 402.375 535.441406 398.964844 535.132812 C 395.570312 534.796875 397.230469 494.484375 393.847656 493.921875 C 390.476562 493.347656 377.550781 543.71875 374.214844 542.90625 C 370.875 542.101562 372.800781 516.894531 369.515625 515.851562 C 366.25 514.8125 355.808594 532.164062 352.605469 530.886719 C 349.414062 529.617188 369.25 493.070312 366.140625 491.566406 C 363.054688 490.082031 342.476562 508.105469 339.476562 506.382812 C 336.511719 504.683594 345.023438 486.050781 342.15625 484.125 C 339.320312 482.222656 328.1875 492.425781 325.460938 490.296875 C 322.769531 488.203125 339.621094 474.570312 337.046875 472.261719 " fill-opacity="1" fill-rule="nonzero"/><path fill="#000000" d="M 235.179688 337.019531 C 227.15625 334.9375 219.433594 338.179688 217.902344 344.242188 C 216.382812 350.304688 221.65625 356.90625 229.679688 358.976562 C 237.691406 361.054688 255.902344 354.085938 255.902344 354.085938 C 255.902344 354.085938 243.203125 339.085938 235.179688 337.019531 " fill-opacity="1" fill-rule="nonzero"/><path fill="#000000" d="M 227.875 408.6875 C 219.753906 409.980469 214.113281 416.066406 215.246094 422.273438 C 216.382812 428.480469 223.882812 432.464844 231.988281 431.171875 C 240.097656 429.878906 253.667969 416.164062 253.667969 416.164062 C 253.667969 416.164062 235.980469 407.398438 227.875 408.6875 " fill-opacity="1" fill-rule="nonzero"/><path fill="#000000" d="M 250.929688 477.777344 C 244.125 482.210938 241.542969 490.082031 245.128906 495.355469 C 248.730469 500.628906 257.160156 501.300781 263.953125 496.875 C 270.742188 492.4375 277.34375 474.34375 277.34375 474.34375 C 277.34375 474.34375 257.722656 473.328125 250.929688 477.777344 " fill-opacity="1" fill-rule="nonzero"/><path fill="#000000" d="M 300.363281 532.308594 C 296.046875 539.113281 296.964844 547.425781 302.394531 550.855469 C 307.824219 554.277344 315.726562 551.527344 320.042969 544.722656 C 324.347656 537.917969 322.832031 518.578125 322.832031 518.578125 C 322.832031 518.578125 304.667969 525.492188 300.363281 532.308594 " fill-opacity="1" fill-rule="nonzero"/><path fill="#000000" d="M 367.625 562.863281 C 366.546875 570.875 370.816406 578.171875 377.15625 579.164062 C 383.46875 580.15625 389.484375 574.464844 390.558594 566.453125 C 391.636719 558.449219 382.261719 541.207031 382.261719 541.207031 C 382.261719 541.207031 368.699219 554.851562 367.625 562.863281 " fill-opacity="1" fill-rule="nonzero"/><path fill="#000000" d="M 441.09375 564.15625 C 443.4375 571.988281 450.3125 577.023438 456.445312 575.410156 C 462.582031 573.792969 465.652344 566.128906 463.308594 558.308594 C 460.976562 550.488281 445.359375 538.324219 445.359375 538.324219 C 445.359375 538.324219 438.75 556.335938 441.09375 564.15625 " fill-opacity="1" fill-rule="nonzero"/><path fill="#000000" d="M 508.054688 535.980469 C 513.414062 542.269531 521.710938 544.160156 526.589844 540.214844 C 531.46875 536.265625 531.074219 527.96875 525.714844 521.6875 C 520.371094 515.398438 501.214844 510.425781 501.214844 510.425781 C 501.214844 510.425781 502.699219 529.703125 508.054688 535.980469 " fill-opacity="1" fill-rule="nonzero"/><path fill="#000000" d="M 556.9375 483.179688 C 564.386719 486.839844 572.675781 485.273438 575.449219 479.675781 C 578.222656 474.09375 574.433594 466.59375 566.996094 462.933594 C 559.558594 459.273438 540.1875 462.335938 540.1875 462.335938 C 540.1875 462.335938 549.5 479.535156 556.9375 483.179688 " fill-opacity="1" fill-rule="nonzero"/><path fill="#000000" d="M 579.289062 414.90625 C 587.539062 415.3125 594.378906 410.542969 594.582031 404.277344 C 594.773438 398.007812 588.242188 392.59375 580.003906 392.199219 C 571.753906 391.789062 555.503906 402.375 555.503906 402.375 C 555.503906 402.375 571.046875 414.523438 579.289062 414.90625 " fill-opacity="1" fill-rule="nonzero"/><path fill="#000000" d="M 571.238281 342.960938 C 578.855469 340.03125 583.078125 332.894531 580.664062 327.03125 C 578.246094 321.171875 570.089844 318.78125 562.476562 321.710938 C 554.859375 324.640625 544.550781 340.894531 544.550781 340.894531 C 544.550781 340.894531 563.621094 345.890625 571.238281 342.960938 " fill-opacity="1" fill-rule="nonzero"/><path fill="#000000" d="M 534.183594 279.78125 C 539.863281 274.03125 540.722656 265.753906 536.109375 261.304688 C 531.492188 256.859375 523.144531 257.921875 517.464844 263.664062 C 511.796875 269.414062 509.191406 288.550781 509.191406 288.550781 C 509.191406 288.550781 528.515625 285.523438 534.183594 279.78125 " fill-opacity="1" fill-rule="nonzero"/><path fill="#000000" d="M 474.527344 236.277344 C 477.289062 228.707031 474.632812 220.730469 468.617188 218.46875 C 462.617188 216.210938 455.5 220.527344 452.75 228.097656 C 450 235.667969 455.5625 254.371094 455.5625 254.371094 C 455.5625 254.371094 471.777344 243.859375 474.527344 236.277344 " fill-opacity="1" fill-rule="nonzero"/><path fill="#000000" d="M 402.589844 220 C 401.941406 211.902344 396.25 205.601562 389.878906 205.914062 C 383.503906 206.234375 378.863281 213.0625 379.511719 221.148438 C 380.15625 229.246094 392.925781 244.277344 392.925781 244.277344 C 392.925781 244.277344 403.246094 228.085938 402.589844 220 " fill-opacity="1" fill-rule="nonzero"/><path fill="#000000" d="M 330.808594 233.742188 C 326.871094 226.53125 319.113281 222.988281 313.480469 225.824219 C 307.859375 228.671875 306.484375 236.828125 310.417969 244.039062 C 314.351562 251.25 332.121094 260.003906 332.121094 260.003906 C 332.121094 260.003906 334.742188 240.953125 330.808594 233.742188 " fill-opacity="1" fill-rule="nonzero"/><path fill="#000000" d="M 271.59375 275.132812 C 265.050781 270.046875 256.574219 269.882812 252.652344 274.761719 C 248.742188 279.628906 250.882812 287.699219 257.421875 292.78125 C 263.964844 297.863281 283.644531 298.84375 283.644531 298.84375 C 283.644531 298.84375 278.132812 280.214844 271.59375 275.132812 " fill-opacity="1" fill-rule="nonzero"/><path fill="#000000" d="M 219.671875 302.21875 C 218.691406 304.179688 218.632812 306.488281 219.480469 308.878906 C 220.738281 312.429688 223.917969 315.742188 227.957031 317.742188 C 233.242188 320.335938 245.847656 319.5 253.070312 318.636719 C 249.375 312.382812 242.402344 301.917969 237.128906 299.335938 C 230.050781 295.84375 222.21875 297.136719 219.671875 302.195312 L 219.671875 302.21875 " fill-opacity="1" fill-rule="nonzero"/><path fill="#000000" d="M 198.996094 384.398438 C 198.925781 386.589844 199.824219 388.742188 201.582031 390.605469 C 204.199219 393.394531 208.433594 395.175781 212.929688 395.390625 C 218.773438 395.675781 229.824219 389.878906 235.996094 386.183594 C 230.0625 381.890625 219.433594 375.023438 213.597656 374.738281 C 205.742188 374.367188 199.199219 378.683594 198.996094 384.363281 L 198.996094 384.398438 " fill-opacity="1" fill-rule="nonzero"/><path fill="#000000" d="M 214.316406 468.496094 C 215.164062 470.550781 216.863281 472.179688 219.230469 473.195312 C 222.746094 474.726562 227.3125 474.679688 231.460938 473.074219 C 236.867188 471.007812 244.449219 461.222656 248.503906 455.339844 C 241.375 453.761719 228.914062 451.679688 223.523438 453.75 C 216.265625 456.535156 212.140625 463.136719 214.316406 468.472656 L 214.316406 468.496094 " fill-opacity="1" fill-rule="nonzero"/><path fill="#000000" d="M 262.984375 540 C 264.597656 541.554688 266.796875 542.367188 269.367188 542.367188 C 273.171875 542.367188 277.285156 540.5 280.382812 537.367188 C 284.410156 533.277344 287.222656 521.234375 288.453125 514.179688 C 281.335938 515.566406 269.210938 518.628906 265.195312 522.707031 C 259.789062 528.171875 258.785156 535.921875 262.957031 539.972656 L 262.984375 540 " fill-opacity="1" fill-rule="nonzero"/><path fill="#000000" d="M 336.558594 586.519531 C 338.664062 587.308594 341.007812 587.175781 343.328125 586.160156 C 346.757812 584.628906 349.710938 581.257812 351.207031 577.132812 C 353.167969 571.761719 350.714844 559.503906 348.910156 552.507812 C 343.0625 556.632812 333.355469 564.300781 331.417969 569.667969 C 328.785156 576.878906 331.09375 584.4375 336.535156 586.507812 L 336.558594 586.519531 " fill-opacity="1" fill-rule="nonzero"/><path fill="#000000" d="M 422.355469 600.019531 C 424.578125 599.914062 426.636719 598.859375 428.308594 596.984375 C 430.785156 594.207031 432.050781 589.914062 431.707031 585.503906 C 431.25 579.761719 423.96875 569.441406 419.4375 563.699219 C 415.851562 569.847656 410.265625 580.800781 410.71875 586.542969 C 411.328125 594.246094 416.53125 600.296875 422.320312 600.019531 L 422.355469 600.019531 " fill-opacity="1" fill-rule="nonzero"/><path fill="#000000" d="M 505.507812 578.183594 C 507.46875 577.191406 508.90625 575.398438 509.632812 572.992188 C 510.722656 569.441406 510.101562 564.96875 507.960938 561.046875 C 505.160156 555.914062 494.304688 549.300781 487.835938 545.824219 C 487.140625 552.925781 486.613281 565.28125 489.414062 570.386719 C 493.15625 577.25 500.367188 580.753906 505.484375 578.183594 L 505.507812 578.183594 " fill-opacity="1" fill-rule="nonzero"/><path fill="#000000" d="M 571.644531 524.761719 C 573.019531 523.050781 573.570312 520.828125 573.238281 518.316406 C 572.757812 514.597656 570.332031 510.734375 566.78125 507.960938 C 562.128906 504.347656 549.574219 502.589844 542.289062 501.957031 C 544.585938 508.796875 549.238281 520.398438 553.863281 524.007812 C 560.09375 528.839844 568.058594 529.1875 571.632812 524.785156 L 571.644531 524.761719 " fill-opacity="1" fill-rule="nonzero"/><path fill="#000000" d="M 609.347656 449.003906 C 609.875 446.886719 609.457031 444.613281 608.117188 442.425781 C 606.144531 439.183594 602.351562 436.578125 597.988281 435.453125 C 592.296875 433.980469 580.207031 437.378906 573.355469 439.710938 C 578.269531 445.09375 587.273438 453.941406 592.953125 455.414062 C 600.582031 457.386719 607.9375 454.527344 609.335938 449.027344 L 609.347656 449.003906 " fill-opacity="1" fill-rule="nonzero"/><path fill="#000000" d="M 612.074219 364.011719 C 611.679688 361.84375 610.351562 359.90625 608.25 358.425781 C 605.117188 356.238281 600.609375 355.339844 596.195312 356.046875 C 590.445312 356.964844 580.925781 364.929688 575.699219 369.820312 C 582.371094 372.824219 594.175781 377.402344 599.914062 376.484375 C 607.640625 375.25 613.089844 369.667969 612.085938 364.035156 L 612.074219 364.011719 " fill-opacity="1" fill-rule="nonzero"/><path fill="#000000" d="M 579.371094 284.472656 C 578.117188 282.628906 576.117188 281.375 573.59375 280.859375 C 569.851562 280.082031 565.417969 281.0625 561.722656 283.464844 C 556.890625 286.625 551.582031 297.78125 548.878906 304.382812 C 556.160156 304.488281 568.730469 303.988281 573.535156 300.855469 C 580.003906 296.632812 582.636719 289.289062 579.394531 284.496094 L 579.371094 284.472656 " fill-opacity="1" fill-rule="nonzero"/><path fill="#000000" d="M 516.890625 224.148438 C 514.992188 222.941406 512.660156 222.59375 510.160156 223.109375 C 506.464844 223.898438 502.855469 226.578125 500.511719 230.285156 C 497.449219 235.117188 497.269531 247.542969 497.554688 254.730469 C 504.179688 251.90625 515.335938 246.417969 518.386719 241.597656 C 522.488281 235.105469 521.832031 227.296875 516.902344 224.160156 L 516.890625 224.148438 " fill-opacity="1" fill-rule="nonzero"/><path fill="#000000" d="M 435.425781 193.464844 C 433.210938 193.117188 430.953125 193.714844 428.917969 195.195312 C 425.894531 197.398438 423.742188 201.320312 423.15625 205.671875 C 422.390625 211.367188 427.363281 222.90625 430.605469 229.410156 C 435.425781 224.160156 443.246094 214.640625 444 208.960938 C 445.027344 201.34375 441.1875 194.382812 435.449219 193.464844 L 435.425781 193.464844 " fill-opacity="1" fill-rule="nonzero"/><path fill="#000000" d="M 349.066406 197.71875 C 346.914062 198.28125 345.132812 199.742188 343.902344 201.929688 C 342.082031 205.160156 341.761719 209.644531 343.027344 213.902344 C 344.691406 219.449219 353.96875 228.121094 359.578125 232.832031 C 361.777344 226.0625 364.898438 214.140625 363.234375 208.601562 C 361.011719 201.152344 354.664062 196.273438 349.089844 197.707031 L 349.066406 197.71875 " fill-opacity="1" fill-rule="nonzero"/><path fill="#000000" d="M 272.753906 236.191406 C 271.042969 237.566406 270.027344 239.636719 269.824219 242.136719 C 269.511719 245.855469 271.066406 250.125 273.984375 253.546875 C 277.785156 258.003906 289.757812 262.285156 296.789062 264.390625 C 295.960938 257.265625 293.859375 245.019531 290.066406 240.570312 C 284.960938 234.578125 277.210938 232.617188 272.765625 236.179688 L 272.753906 236.191406 " fill-opacity="1" fill-rule="nonzero"/></svg>